<?xml version="1.0" standalone="no"?>
<!DOCTYPE svg PUBLIC "-//W3C//DTD SVG 20010904//EN"
 "http://www.w3.org/TR/2001/REC-SVG-20010904/DTD/svg10.dtd">
<svg version="1.0" xmlns="http://www.w3.org/2000/svg"
 width="263.000000pt" height="263.000000pt" viewBox="0 0 263.000000 263.000000"
 preserveAspectRatio="xMidYMid meet">
<metadata>
Created by potrace 1.14, written by Peter Selinger 2001-2017
</metadata>
<g transform="translate(0.000000,263.000000) scale(0.100000,-0.100000)"
fill="#000000" stroke="none">
<path d="M892 2445 c4 -5 -4 -19 -18 -32 -33 -30 -44 -89 -30 -160 3 -18 2
-35 -4 -38 -6 -4 -8 -11 -5 -16 4 -5 7 -38 7 -74 1 -55 -3 -69 -25 -99 -15
-19 -27 -39 -27 -45 0 -6 -4 -11 -9 -11 -7 0 -14 -15 -19 -40 0 -3 -6 -18 -12
-35 -16 -43 -14 -219 4 -253 17 -34 23 -73 13 -89 -5 -7 -5 -13 -1 -13 4 0 -1
-9 -10 -19 -13 -14 -14 -21 -5 -27 7 -4 10 -3 5 4 -3 6 -1 14 6 18 7 4 10 4 6
-1 -4 -4 -3 -14 4 -22 9 -11 8 -13 -1 -11 -17 4 -41 -33 -25 -39 13 -4 6 -62
-10 -82 -8 -11 -8 -13 2 -7 6 4 12 2 12 -3 0 -6 -4 -11 -9 -11 -14 0 -19 -35
-8 -56 5 -10 6 -16 2 -12 -9 8 -43 -41 -49 -70 -4 -22 -18 -56 -25 -62 -4 -3
-14 -28 -23 -57 -12 -38 -13 -54 -4 -63 8 -8 7 -10 -5 -5 -10 4 -16 0 -16 -8
0 -23 -25 -77 -32 -72 -4 2 -8 -1 -9 -8 0 -7 -2 -29 -4 -50 -3 -21 -1 -40 3
-43 5 -2 5 -12 2 -21 -4 -11 -3 -14 5 -9 7 4 12 2 12 -4 0 -6 5 -8 13 -4 8 5
7 2 -2 -9 -12 -15 -12 -17 4 -11 12 5 16 4 12 -3 -4 -7 5 -14 23 -18 17 -4 28
-10 25 -15 -7 -11 24 -22 38 -13 7 4 8 0 4 -11 -4 -9 -3 -15 1 -12 9 5 43 -29
41 -42 -3 -18 2 -35 8 -29 3 4 12 -1 20 -11 9 -10 11 -11 7 -2 -7 12 -5 13 8
3 8 -7 19 -9 24 -5 4 4 3 0 -4 -9 -6 -9 -9 -19 -5 -22 3 -4 1 -7 -6 -7 -7 0
-11 7 -8 14 4 9 1 13 -6 10 -7 -3 -13 -31 -14 -76 -2 -39 -6 -74 -10 -77 -12
-9 -16 -43 -6 -50 15 -11 54 -106 58 -144 8 -59 39 -106 72 -107 41 -1 58 108
30 187 -9 22 -13 44 -10 47 3 3 2 11 -3 18 -15 21 -1 106 20 121 7 6 4 7 -6 3
-10 -3 -18 -1 -18 4 0 6 5 10 10 10 6 0 10 5 10 11 0 6 -7 9 -14 6 -10 -4 -13
-1 -9 9 3 10 0 12 -10 9 -8 -4 -17 1 -21 11 -5 13 -4 14 7 6 17 -15 28 -5 20
16 -5 14 -2 14 18 -3 13 -11 18 -13 12 -5 -7 8 -13 21 -13 29 0 11 4 10 14 -4
13 -18 14 -14 15 35 2 119 6 168 13 164 7 -5 17 35 23 96 2 19 4 37 5 40 1 3
2 8 1 13 0 4 4 7 9 7 5 0 9 3 8 8 -1 4 2 19 6 33 4 14 9 34 11 45 2 10 4 19 5
19 1 0 2 24 3 53 1 28 4 52 7 52 3 0 5 22 4 49 -1 54 22 92 63 105 24 8 70 80
79 125 l6 30 118 -60 c65 -32 152 -85 193 -118 41 -32 90 -67 108 -76 57 -29
168 -100 169 -107 0 -4 -15 -15 -32 -24 -18 -9 -51 -29 -73 -44 -22 -15 -92
-56 -155 -90 -63 -35 -155 -86 -205 -113 -81 -44 -145 -97 -145 -119 0 -4 -6
-8 -14 -8 -29 0 -67 -45 -111 -132 -42 -86 -55 -135 -38 -152 4 -4 9 -19 10
-34 5 -37 23 -82 34 -82 5 0 9 4 9 10 0 18 69 23 93 7 13 -8 40 -20 61 -26 36
-9 43 -7 94 26 45 28 68 36 114 38 31 2 72 10 89 19 18 9 45 16 60 16 19 0 34
9 49 30 12 17 38 39 58 50 21 10 56 28 78 40 23 12 76 50 117 86 41 35 78 64
80 64 3 0 7 -12 9 -26 4 -36 32 -54 53 -34 12 13 13 22 3 54 -11 34 -10 39 6
48 44 25 56 47 50 89 -6 35 -4 41 14 46 19 4 21 12 20 76 0 57 6 87 30 146
l29 75 -28 25 c-15 14 -29 33 -30 41 -4 22 11 81 29 112 15 26 15 29 -4 55
-11 15 -39 33 -62 41 -23 7 -42 19 -42 26 0 7 -18 39 -39 73 -49 74 -171 188
-230 214 -41 18 -125 96 -164 154 -11 14 -31 31 -45 38 -15 6 -39 19 -53 28
-14 10 -58 34 -97 54 -40 20 -70 40 -67 46 4 5 -1 9 -10 9 -9 0 -14 4 -10 9 3
5 -14 25 -37 43 -58 46 -127 117 -163 167 -52 74 -69 88 -101 86 -19 -1 -36 6
-49 21 -11 12 -31 25 -45 29 -14 4 -22 4 -18 0z m-72 -1080 c-10 -13 -9 -19 6
-38 19 -21 19 -21 -1 -7 -11 8 -7 -1 10 -20 17 -19 32 -37 34 -40 2 -3 2 2 -1
11 -4 9 -1 16 6 16 7 0 12 -10 10 -23 -1 -16 2 -21 12 -17 10 4 12 0 8 -11 -3
-9 -11 -13 -17 -9 -6 3 -7 1 -3 -6 4 -6 12 -9 17 -6 5 4 9 1 9 -5 0 -6 5 -8
10 -5 6 3 10 1 10 -5 0 -6 4 -9 9 -6 5 4 7 -4 3 -16 -4 -16 -2 -19 9 -13 11 7
12 6 2 -7 -7 -8 -12 -17 -10 -19 1 -2 -3 1 -9 8 -6 7 -15 13 -19 13 -5 0 -5
-3 -2 -7 4 -3 1 -13 -6 -22 -11 -14 -10 -15 7 -1 18 14 19 13 13 -2 -3 -10 -1
-20 5 -24 7 -4 8 -3 4 4 -4 7 -2 12 3 12 20 0 11 -18 -20 -44 -17 -14 -26 -26
-21 -26 5 0 19 9 32 20 30 26 38 26 15 0 -10 -11 -32 -24 -49 -28 -30 -8 -31
-10 -29 -58 1 -27 -3 -51 -8 -55 -27 -16 0 -129 31 -129 13 0 13 -1 0 -10 -8
-5 -15 -17 -16 -27 0 -10 -4 -26 -8 -35 -4 -9 -4 -22 0 -29 5 -8 3 -9 -5 -4
-7 4 -11 18 -9 30 4 18 1 22 -11 17 -14 -5 -14 -3 -3 10 11 14 10 16 -7 11
-15 -4 -21 -1 -21 12 0 11 -5 15 -16 11 -8 -3 -13 -2 -10 2 2 4 -4 8 -14 9
-11 1 -22 -2 -25 -8 -10 -14 -25 -11 -25 7 0 8 -4 13 -9 9 -6 -3 -15 3 -20 14
-16 30 -12 40 4 11 8 -14 14 -20 15 -13 0 6 7 19 16 27 12 12 12 16 2 16 -14
0 -42 75 -33 90 3 5 1 11 -5 15 -6 4 -7 11 -4 17 4 7 2 8 -4 4 -7 -4 -12 -2
-12 3 0 6 6 11 13 12 8 0 9 2 0 5 -7 3 -2 14 14 30 13 13 21 29 18 34 -3 6 -1
10 5 10 7 0 8 5 3 13 -4 6 -8 32 -8 56 -1 33 5 51 22 69 12 14 20 28 18 32 -3
4 2 11 11 14 9 4 14 13 10 21 -3 9 3 24 14 35 19 19 17 25 -5 20 -5 -1 -1 8
10 19 23 23 43 28 25 6z m75 -58 c3 -4 2 -5 -1 -2 -4 2 -15 0 -25 -5 -17 -10
-35 1 -22 13 7 8 41 3 48 -6z m-122 -531 c4 -10 1 -13 -8 -9 -8 3 -12 9 -9 14
7 12 11 11 17 -5z m127 -6 c0 -5 -2 -10 -4 -10 -3 0 -8 5 -11 10 -3 6 -1 10 4
10 6 0 11 -4 11 -10z m-75 -40 c3 -5 1 -10 -4 -10 -6 0 -11 5 -11 10 0 6 2 10
4 10 3 0 8 -4 11 -10z m65 -4 c0 -3 -4 -8 -10 -11 -5 -3 -10 -1 -10 4 0 6 5
11 10 11 6 0 10 -2 10 -4z m-79 -33 c13 -16 12 -17 -3 -4 -10 7 -18 15 -18 17
0 8 8 3 21 -13z m49 -23 c0 -4 -12 -7 -26 -7 -14 0 -21 3 -15 7 7 3 18 7 26 7
8 0 15 -4 15 -7z m-50 -32 c0 -5 -9 -4 -20 2 -11 6 -20 12 -20 14 0 2 9 2 20
-1 11 -3 20 -9 20 -15z m71 -95 c12 -16 12 -17 -2 -6 -9 7 -19 10 -22 6 -4 -3
-7 -1 -7 5 0 17 16 15 31 -5z m11 -40 c-6 -3 -10 -8 -7 -13 3 -5 -3 -7 -12 -6
-9 2 -19 9 -21 17 -3 11 -2 11 6 1 7 -10 11 -10 22 3 7 8 16 13 19 9 3 -4 0
-9 -7 -11z m-67 -40 c1 -16 4 -35 6 -43 3 -9 -4 -15 -18 -16 -12 -1 -20 3 -17
7 3 5 0 9 -7 9 -7 0 -5 6 6 13 10 8 15 19 11 25 -4 7 -3 12 3 12 6 0 8 8 4 18
-3 9 -2 14 2 10 5 -5 9 -20 10 -35z m31 -21 c4 -22 3 -25 -8 -14 -7 7 -13 27
-14 44 -2 25 0 28 8 14 5 -9 12 -29 14 -44z"/>
<path d="M806 1292 c-3 -5 1 -9 9 -9 8 0 12 4 9 9 -3 4 -7 8 -9 8 -2 0 -6 -4
-9 -8z"/>
<path d="M855 1241 c-3 -5 -2 -12 3 -15 5 -3 9 1 9 9 0 17 -3 19 -12 6z"/>
<path d="M725 830 c-3 -5 -1 -10 5 -10 6 0 8 -5 4 -12 -4 -7 -3 -8 4 -4 6 4 9
13 5 21 -6 18 -10 19 -18 5z"/>
<path d="M908 578 c5 -5 16 -8 23 -6 8 3 3 7 -10 11 -17 4 -21 3 -13 -5z"/>
</g>
</svg>
