<?xml version="1.0" standalone="no"?>
<!DOCTYPE svg PUBLIC "-//W3C//DTD SVG 20010904//EN"
 "http://www.w3.org/TR/2001/REC-SVG-20010904/DTD/svg10.dtd">
<svg version="1.0" xmlns="http://www.w3.org/2000/svg"
 width="766.000000pt" height="263.000000pt" viewBox="0 0 766.000000 263.000000"
 preserveAspectRatio="xMidYMid meet">

<g transform="translate(0.000000,263.000000) scale(0.100000,-0.100000)"
fill="#000000" stroke="none">
<path d="M627 2405 c-27 -33 -27 -34 -30 -199 -1 -111 -6 -169 -13 -174 -11
-7 -36 -47 -73 -117 -25 -46 -25 -205 -1 -276 19 -56 21 -135 4 -188 -5 -18
-4 -22 5 -17 6 4 18 3 26 -4 10 -8 17 -6 29 12 l16 22 1 -24 c2 -31 5 -62 7
-75 1 -6 16 -16 33 -24 18 -8 34 -22 36 -32 4 -13 14 -19 34 -19 33 0 36 -6
12 -32 -14 -16 -15 -25 -4 -72 20 -90 22 -106 11 -106 -5 0 -10 -6 -10 -14 0
-19 37 -27 51 -10 12 14 8 106 -5 137 -6 12 -4 17 8 17 12 0 16 10 16 39 0 27
8 49 24 68 12 15 26 35 29 43 4 12 6 12 6 -2 2 -45 74 45 85 107 3 15 7 29 9
31 9 10 245 -120 311 -171 42 -33 93 -69 114 -80 85 -46 162 -99 162 -111 0
-8 -4 -14 -8 -14 -5 0 -38 -19 -73 -41 -35 -23 -116 -70 -179 -104 -63 -34
-153 -83 -200 -109 -48 -26 -101 -64 -121 -87 -20 -22 -47 -46 -60 -52 -30
-15 -74 -79 -94 -136 -8 -24 -22 -53 -32 -63 -13 -15 -14 -24 -5 -56 6 -20 16
-58 23 -85 12 -48 22 -59 33 -32 4 10 20 15 51 15 28 0 45 4 45 12 0 6 3 8 7
4 4 -4 8 -15 8 -24 0 -12 13 -20 40 -25 36 -8 47 -5 103 28 44 27 69 36 86 31
13 -3 53 3 88 13 34 10 76 22 91 25 15 4 32 17 38 30 6 12 30 33 52 45 115 59
150 82 208 134 35 31 67 57 71 57 3 0 9 -13 13 -30 11 -48 28 -49 23 -1 -2 30
0 40 9 37 7 -3 10 1 7 9 -4 8 10 24 35 41 43 28 47 37 31 78 -6 16 -6 27 0 31
18 11 11 46 -12 65 -22 17 -22 19 -4 26 23 9 28 1 67 -116 44 -134 57 -156
146 -240 87 -84 149 -130 175 -130 10 0 32 -13 50 -28 47 -41 75 -47 243 -47
160 0 292 -12 312 -27 11 -9 10 -88 -2 -186 -5 -44 16 -37 28 9 5 19 25 52 46
74 21 22 50 57 66 78 17 23 36 37 50 37 28 0 38 10 24 26 -12 15 -4 34 16 34
7 0 15 7 19 15 3 8 12 15 21 15 8 0 15 6 15 13 0 7 16 28 35 47 35 34 39 35
180 56 31 5 44 2 54 -10 18 -22 31 -20 31 4 0 42 66 46 99 6 20 -24 32 -19 19
9 -14 32 12 75 46 75 26 0 102 55 111 81 3 9 1 36 -4 60 -6 24 -11 57 -11 73
0 17 -12 42 -30 63 -19 22 -30 45 -30 64 0 22 -13 46 -44 82 -24 29 -50 65
-58 81 -17 33 -135 172 -210 248 -27 26 -48 55 -48 63 0 19 -68 95 -85 95 -7
0 -29 14 -50 30 -30 24 -41 28 -52 19 -11 -9 -16 -8 -26 5 -7 10 -28 21 -47
25 -37 7 -39 13 -57 121 -3 19 -14 43 -25 54 -20 18 -20 38 -3 94 6 18 4 22
-13 22 -14 0 -22 8 -24 22 -4 28 -30 34 -51 13 -9 -8 -20 -15 -25 -15 -5 0
-15 -7 -22 -15 -31 -37 -80 -7 -80 49 0 62 -42 77 -79 29 -21 -28 -21 -28 -27
-6 -7 26 -85 81 -166 116 -30 14 -59 30 -62 36 -16 25 -171 -4 -183 -35 -3 -7
-18 -14 -33 -14 -31 0 -93 -46 -87 -64 2 -6 21 -13 43 -16 24 -3 39 -10 39
-19 0 -8 12 -15 30 -16 17 -2 41 -7 55 -13 24 -9 24 -9 -12 -21 -41 -13 -71
-5 -146 43 -53 33 -67 33 -101 -5 -33 -36 -31 -65 5 -81 24 -11 33 -28 15 -28
-5 0 -12 -7 -15 -16 -4 -11 0 -14 17 -12 21 3 24 -7 14 -52 -1 -3 5 -22 12
-42 11 -35 14 -36 37 -26 20 9 25 17 21 37 -10 49 25 79 53 46 7 -8 29 -15 49
-15 33 0 39 -4 54 -35 9 -19 21 -35 27 -35 13 0 13 1 -5 43 -24 57 -3 84 39
52 11 -8 37 -15 58 -15 34 0 41 -5 59 -35 12 -19 28 -35 36 -35 22 0 6 -40
-31 -75 -17 -16 -40 -46 -50 -67 -11 -21 -53 -64 -102 -103 -46 -37 -91 -79
-101 -94 -9 -14 -38 -48 -64 -76 -26 -27 -63 -78 -83 -112 -20 -34 -41 -65
-46 -68 -12 -7 -67 33 -74 55 -6 17 18 106 35 126 16 20 -16 72 -49 80 -38 9
-72 32 -72 49 0 27 -80 134 -143 191 -34 31 -86 67 -114 81 -29 13 -61 34 -70
46 -10 13 -33 33 -50 45 -18 13 -33 30 -33 38 0 29 -40 56 -204 138 -82 41
-98 54 -103 77 -3 15 -12 30 -20 33 -11 4 -13 1 -8 -14 7 -23 -2 -25 -27 -6
-10 7 -18 25 -18 39 0 17 -13 36 -40 60 -22 19 -40 38 -40 43 0 5 -18 29 -40
54 -22 25 -40 51 -40 59 0 10 -11 12 -42 9 -39 -4 -45 -2 -63 26 -27 41 -45
41 -78 1z m1703 -301 c0 -8 -4 -12 -10 -9 -5 3 -10 10 -10 16 0 5 5 9 10 9 6
0 10 -7 10 -16z m247 -126 c-3 -8 -6 -5 -6 6 -1 11 2 17 5 13 3 -3 4 -12 1
-19z m-1327 -44 c0 -8 -4 -14 -9 -14 -11 0 -22 26 -14 34 9 9 23 -3 23 -20z
m-53 -24 c-2 -34 -5 -40 -23 -40 -12 0 -25 7 -28 16 -9 23 -8 24 14 24 13 0
20 7 20 20 0 11 4 20 9 20 5 0 8 -18 8 -40z m1263 -41 c0 -4 -10 2 -23 14 -13
12 -21 26 -19 31 5 10 42 -30 42 -45z m-1830 -145 c0 -14 -4 -22 -10 -19 -5 3
-10 17 -10 31 0 14 4 22 10 19 6 -3 10 -17 10 -31z m-80 6 c0 -5 -2 -10 -4
-10 -3 0 -8 5 -11 10 -3 6 -1 10 4 10 6 0 11 -4 11 -10z m36 -69 c-12 -19 -22
-12 -24 16 -2 25 -1 26 14 11 9 -9 13 -21 10 -27z m2354 -21 c0 -5 6 -10 14
-10 8 0 17 -7 20 -16 3 -9 12 -14 19 -11 20 7 50 -20 43 -38 -9 -25 3 -38 22
-23 13 11 14 11 10 -2 -9 -28 -39 -23 -69 12 -21 24 -31 30 -37 20 -7 -10 -12
-9 -24 5 -24 28 -28 40 -22 57 7 18 24 22 24 6z m-73 -66 c7 -19 -17 -68 -29
-56 -10 10 1 72 14 72 5 0 11 -7 15 -16z m-1980 -16 c-3 -8 -6 -5 -6 6 -1 11
2 17 5 13 3 -3 4 -12 1 -19z m1719 -181 c43 -46 92 -105 108 -131 16 -27 52
-73 79 -103 75 -81 157 -192 157 -213 0 -19 -26 -35 -35 -20 -3 4 -3 15 0 23
5 11 -7 15 -54 20 -59 5 -101 25 -144 69 -10 10 -23 18 -29 18 -9 0 -9 -3 0
-12 7 -7 12 -16 12 -20 0 -19 -96 68 -110 101 -15 33 -68 77 -112 94 -10 3
-24 22 -32 40 -8 19 -19 38 -25 41 -26 16 -11 72 32 123 23 29 49 52 58 52 8
1 51 -36 95 -82z m-1862 23 c8 -9 1 -10 -29 -4 -46 8 -55 12 -55 24 0 11 70
-5 84 -20z m666 -65 c0 -8 -4 -15 -10 -15 -5 0 -10 7 -10 15 0 8 5 15 10 15 6
0 10 -7 10 -15z m1080 -196 c0 -20 6 -30 23 -35 12 -5 26 -7 31 -6 11 3 35
-17 47 -40 10 -19 9 -19 -15 -3 -14 10 -33 14 -42 11 -14 -6 -16 -16 -9 -74 9
-84 12 -103 31 -197 15 -76 16 -85 6 -85 -11 0 -42 77 -42 106 0 11 -8 38 -19
60 -21 45 -41 167 -41 256 0 53 2 59 15 48 8 -7 15 -25 15 -41z m794 -14 c3
-8 1 -15 -4 -15 -6 0 -10 7 -10 15 0 8 2 15 4 15 2 0 6 -7 10 -15z m-146 -40
c-2 -14 -7 -26 -13 -26 -5 0 -11 12 -13 26 -2 18 1 25 13 25 12 0 15 -7 13
-25z m152 5 c0 -5 -2 -10 -4 -10 -3 0 -8 5 -11 10 -3 6 -1 10 4 10 6 0 11 -4
11 -10z m16 -44 c-3 -14 -2 -28 4 -31 5 -3 10 0 11 7 0 7 4 4 9 -7 12 -28 12
-105 0 -105 -5 0 -10 8 -10 18 0 10 -13 36 -30 58 -33 44 -36 54 -15 54 9 0
12 6 9 15 -4 10 0 15 11 15 13 0 16 -6 11 -24z m-97 -111 c35 -70 19 -64 -19
7 -19 35 -27 58 -19 51 8 -7 25 -33 38 -58z m-219 -60 c7 -9 10 -18 7 -22 -8
-7 -37 15 -37 28 0 14 16 11 30 -6z m406 -92 c-3 -4 -13 10 -21 30 -21 51 -18
59 6 14 11 -22 18 -41 15 -44z m-1669 16 c7 -15 8 -32 3 -40 -12 -18 -16 -11
-24 41 -7 46 1 46 21 -1z m1024 22 c28 -23 20 -36 -16 -27 -16 4 -25 13 -25
26 0 25 11 25 41 1z m227 -3 c7 -7 12 -19 12 -28 0 -14 -8 -15 -50 -10 -28 4
-58 14 -67 22 -12 12 -22 14 -40 7 -26 -9 -43 -5 -43 12 0 14 174 11 188 -3z
m-1680 -56 c6 -18 -15 -14 -22 4 -4 10 -1 14 6 12 6 -2 14 -10 16 -16z m1286
-78 c3 -9 6 -23 6 -32 0 -13 -3 -12 -15 4 -16 21 -19 44 -6 44 5 0 12 -7 15
-16z m-1261 -46 c3 -21 1 -40 -4 -43 -5 -4 -9 -3 -10 2 -1 4 -3 28 -5 52 -4
52 11 43 19 -11z m735 -43 c-3 -3 -9 2 -12 12 -6 14 -5 15 5 6 7 -7 10 -15 7
-18z m-1210 -138 c5 -24 -15 -21 -21 4 -3 13 -1 19 6 16 7 -2 13 -11 15 -20z
m85 -24 c-7 -18 -20 -16 -27 3 -3 8 0 21 7 28 10 12 13 11 18 -3 3 -9 4 -22 2
-28z"/>
<path d="M2930 1606 c0 -2 7 -9 15 -16 12 -10 15 -10 15 4 0 9 -7 16 -15 16
-8 0 -15 -2 -15 -4z"/>
<path d="M6224 2276 c-37 -17 -62 -38 -85 -72 -68 -97 -138 -229 -166 -314 -8
-25 -27 -74 -43 -110 -76 -175 -113 -271 -130 -336 -9 -39 -24 -84 -32 -100
-13 -27 -17 -29 -63 -27 -28 2 -75 14 -106 28 -31 14 -72 28 -90 31 -64 11
-90 26 -104 62 -22 52 -19 71 13 78 32 8 131 66 132 77 0 20 -32 55 -48 50
-15 -3 -18 3 -17 40 0 24 6 51 13 59 9 12 11 29 4 65 l-8 48 -48 -2 c-32 -1
-54 4 -64 14 -12 11 -29 13 -81 8 -47 -4 -81 -2 -116 9 -27 9 -67 16 -88 16
-20 0 -45 4 -55 9 -9 5 -44 19 -77 31 -85 32 -165 71 -198 97 -33 27 -54 21
-62 -18 -6 -27 -25 -41 -25 -19 0 5 -3 9 -7 9 -5 -1 -23 2 -40 6 -28 6 -33 12
-33 36 0 32 -9 35 -76 19 -33 -8 -49 -6 -74 7 -29 14 -49 14 -158 5 -124 -10
-126 -10 -151 -41 -16 -19 -42 -36 -66 -42 -22 -6 -52 -23 -67 -37 -16 -14
-28 -20 -28 -14 0 7 -16 12 -40 12 -38 0 -43 3 -72 50 -35 56 -54 62 -88 25
-34 -36 -55 -32 -67 13 l-10 37 -2 -32 c0 -18 -5 -33 -9 -33 -5 0 -7 -36 -5
-80 3 -66 1 -80 -12 -80 -8 0 -15 9 -15 21 0 38 -19 9 -25 -39 -4 -26 -11 -69
-16 -97 -5 -27 -10 -77 -11 -111 -1 -51 2 -64 21 -83 14 -14 20 -29 16 -40 -6
-21 18 -174 39 -241 8 -25 17 -81 20 -126 3 -44 10 -100 15 -125 41 -179 44
-206 33 -290 -5 -46 -15 -102 -21 -124 -16 -56 -26 -198 -25 -341 1 -107 5
-131 29 -193 l27 -71 168 0 168 0 -23 80 c-23 83 -22 89 17 119 13 10 22 9 47
-3 45 -24 76 -20 96 11 10 15 31 38 48 52 45 38 67 94 67 178 0 42 5 75 11 79
7 4 9 24 6 54 -4 33 -1 54 9 69 19 27 34 19 34 -19 0 -22 13 -40 56 -78 31
-28 67 -53 81 -57 14 -3 69 -32 122 -64 53 -32 137 -79 186 -105 50 -26 110
-64 135 -85 57 -48 137 -104 179 -126 27 -13 48 -15 120 -10 95 8 119 2 243
-54 78 -36 78 -36 78 -16 0 18 12 19 27 4 8 -8 13 -8 17 0 4 6 4 11 0 11 -15
0 72 59 87 60 8 0 26 -11 39 -25 13 -14 29 -25 36 -25 16 0 64 57 64 76 0 8 9
31 19 52 26 52 58 217 65 342 9 141 26 241 44 247 30 12 334 -110 418 -168 23
-16 53 -33 66 -38 13 -5 61 -27 108 -49 47 -22 119 -52 160 -67 41 -15 95 -35
120 -44 26 -10 50 -27 57 -40 17 -35 31 -41 100 -41 56 0 62 -2 65 -22 2 -15
16 -26 48 -37 25 -9 65 -28 90 -43 36 -22 61 -28 115 -30 61 -2 78 1 138 30
37 17 76 32 86 32 36 0 41 59 11 122 -24 50 -25 67 -5 104 20 39 19 70 -3 102
-10 15 -26 56 -36 92 -10 36 -40 108 -67 161 -26 52 -56 124 -65 160 -8 35
-26 81 -40 101 -13 20 -28 58 -34 83 -23 102 -104 230 -184 293 -39 30 -56 50
-56 66 0 26 -32 77 -95 151 -24 28 -68 92 -100 143 -133 220 -280 378 -385
414 -104 37 -182 58 -213 58 -17 0 -55 -11 -83 -24z m-1204 -436 c0 -5 -7 -10
-15 -10 -8 0 -15 5 -15 10 0 6 7 10 15 10 8 0 15 -4 15 -10z m-1340 -44 c0 -3
-4 -8 -10 -11 -5 -3 -10 -1 -10 4 0 6 5 11 10 11 6 0 10 -2 10 -4z m1785 -117
c3 -24 0 -30 -13 -27 -12 2 -17 14 -18 38 -1 19 -2 40 -4 45 -1 6 -2 15 -1 20
3 17 32 -44 36 -76z m-69 55 c-4 -9 -1 -32 6 -50 9 -24 9 -37 1 -45 -16 -16
-47 79 -32 98 16 18 32 16 25 -3z m-776 -43 c0 -16 3 -37 7 -47 4 -11 3 -15
-4 -11 -13 8 -22 87 -11 87 5 0 8 -13 8 -29z m717 -6 c7 -20 -2 -29 -21 -22
-9 4 -13 13 -10 22 8 19 23 19 31 0z m935 -26 c13 -17 44 -53 70 -81 30 -32
50 -62 54 -85 4 -22 29 -62 70 -110 35 -41 64 -79 64 -83 0 -14 216 -230 229
-230 30 0 84 -36 106 -69 28 -42 40 -120 31 -186 -7 -45 -31 -70 -45 -47 -32
53 -67 82 -114 98 -29 9 -62 23 -75 31 -13 8 -67 21 -120 28 -136 20 -135 20
-186 70 -26 25 -52 45 -59 45 -20 0 -161 109 -180 141 -22 34 -19 77 11 159
11 30 27 84 36 120 41 172 59 230 71 230 8 0 24 -14 37 -31z m-1836 -74 c43
-8 90 -14 104 -15 14 0 62 -12 108 -26 58 -19 82 -31 80 -41 -3 -16 -51 -43
-173 -98 -88 -41 -90 -42 -190 -99 -96 -55 -158 -86 -171 -86 -13 0 -46 37
-62 70 -8 16 -12 60 -10 125 l3 99 93 28 c69 22 96 35 109 54 10 16 19 21 23
14 4 -6 42 -17 86 -25z m-334 -39 c4 -6 5 -12 4 -14 -6 -6 -56 21 -56 30 0 12
43 -1 52 -16z m1328 14 c0 -5 -2 -10 -4 -10 -3 0 -8 5 -11 10 -3 6 -1 10 4 10
6 0 11 -4 11 -10z m-134 -151 c3 -6 15 -9 25 -6 11 3 19 1 19 -4 0 -5 -6 -9
-14 -9 -8 0 -19 -13 -24 -29 -7 -20 -19 -30 -39 -34 -15 -3 -29 -4 -30 -3 -1
1 5 23 14 49 15 45 34 59 49 36z m-110 -161 c3 -12 7 -59 8 -105 1 -80 1 -82
-21 -76 -17 4 -23 1 -23 -12 0 -11 -5 -15 -15 -11 -19 7 -19 2 -1 -32 35 -66
172 -158 266 -177 60 -13 154 -60 180 -91 14 -16 40 -40 58 -52 32 -23 32 -24
32 -106 0 -71 -3 -86 -21 -102 -17 -15 -19 -26 -14 -65 5 -36 3 -50 -10 -63
-9 -9 -19 -16 -23 -16 -17 0 -75 44 -166 126 -54 49 -130 110 -169 136 -71 48
-166 138 -145 138 18 0 -52 64 -112 102 -71 45 -80 56 -89 107 -1 3 -7 -3 -13
-12 -12 -16 -15 -15 -40 8 -34 31 -34 35 -7 28 20 -5 21 -3 16 23 -7 40 5 58
68 99 52 33 88 63 165 138 41 41 66 45 76 15z m-626 -168 c0 -5 -4 -10 -9 -10
-6 0 -13 5 -16 10 -3 6 1 10 9 10 9 0 16 -4 16 -10z m-400 -117 c0 -7 -5 -13
-10 -13 -15 0 -32 50 -24 69 5 12 9 9 20 -14 7 -16 13 -36 14 -42z m213 40
c-7 -2 -19 -2 -25 0 -7 3 -2 5 12 5 14 0 19 -2 13 -5z m-102 -85 c11 -21 11
-22 -4 -9 -10 7 -17 17 -17 22 0 15 9 10 21 -13z m1229 -3 c0 -30 -18 -32 -46
-7 -11 11 -26 22 -34 25 -8 3 6 6 33 6 44 1 47 -1 47 -24z m-937 -10 c4 -8 2
-17 -3 -20 -6 -4 -10 3 -10 14 0 25 6 27 13 6z m-359 -27 c20 -28 20 -38 2
-38 -8 0 -17 -8 -20 -17 -5 -13 -9 -14 -19 -4 -9 10 -8 15 6 25 19 14 23 36 7
36 -5 0 -10 5 -10 10 0 17 18 11 34 -12z m220 -184 c3 -8 2 -12 -4 -9 -6 3
-10 10 -10 16 0 14 7 11 14 -7z m267 -180 c9 -11 8 -14 -8 -14 -19 0 -43 17
-43 31 0 11 38 -2 51 -17z m229 -54 c0 -5 -2 -10 -4 -10 -3 0 -8 5 -11 10 -3
6 -1 10 4 10 6 0 11 -4 11 -10z m338 -165 c-3 -3 -9 2 -12 12 -6 14 -5 15 5 6
7 -7 10 -15 7 -18z m-44 -71 c8 -22 8 -24 -8 -24 -15 0 -28 24 -19 34 11 10
21 7 27 -10z"/>
<path d="M2253 1749 c5 -18 1 -30 -14 -43 -25 -21 -17 -31 34 -40 l38 -7 -15
30 c-9 16 -16 36 -16 44 0 8 -7 21 -17 28 -15 13 -16 11 -10 -12z"/>
<path d="M500 1313 c0 -10 5 -25 10 -33 7 -11 10 -7 10 18 0 17 -4 32 -10 32
-5 0 -10 -8 -10 -17z"/>
<path d="M452 1228 c-7 -7 -12 -21 -11 -32 0 -20 1 -20 11 2 6 12 15 22 20 22
4 0 8 5 8 10 0 14 -13 13 -28 -2z"/>
<path d="M411 1119 c-14 -31 -20 -61 -17 -75 7 -25 25 -33 27 -11 3 56 8 89
14 95 5 4 5 -3 2 -15 -3 -13 -1 -23 5 -23 6 0 7 -7 4 -15 -21 -51 -20 -51 -4
-37 19 15 22 107 3 122 -9 8 -18 -2 -34 -41z"/>
<path d="M670 1021 c-24 -29 -40 -59 -40 -79 0 -10 -4 -22 -10 -28 -5 -5 -7
-26 -4 -46 5 -26 13 -39 32 -48 23 -10 29 -9 43 9 10 12 20 45 24 73 4 29 13
66 21 82 18 36 18 35 -6 29 -12 -3 -22 1 -26 11 -8 20 -15 19 -34 -3z"/>
<path d="M350 925 c0 -25 5 -38 18 -42 9 -3 25 -13 34 -20 22 -20 36 -9 30 23
-4 21 -8 25 -30 19 -22 -5 -24 -4 -18 20 4 17 3 24 -4 20 -5 -3 -10 -1 -10 4
0 6 -4 11 -10 11 -5 0 -10 -16 -10 -35z"/>
<path d="M402 940 c0 -14 2 -19 5 -12 2 6 2 18 0 25 -3 6 -5 1 -5 -13z"/>
<path d="M343 863 c-20 -7 -15 -19 13 -32 23 -10 25 -9 22 11 -3 23 -15 30
-35 21z"/>
<path d="M375 800 c-4 -6 1 -18 11 -25 29 -22 39 -18 18 8 -10 12 -20 23 -20
25 -1 2 -5 -2 -9 -8z"/>
<path d="M670 683 c0 -16 5 -35 10 -43 7 -11 10 -4 10 28 0 23 -4 42 -10 42
-5 0 -10 -12 -10 -27z"/>
<path d="M647 693 c-4 -3 -7 -11 -7 -17 0 -6 5 -5 12 2 6 6 9 14 7 17 -3 3 -9
2 -12 -2z"/>
<path d="M631 448 c-1 -19 -56 -62 -70 -54 -5 3 -14 0 -20 -8 -8 -10 -7 -23 4
-50 9 -20 20 -60 25 -89 10 -50 42 -97 66 -97 23 0 44 43 43 90 0 44 -46 242
-48 208z"/>
</g>
</svg>
