# Blender 3.5.0
# www.blender.org
mtllib vase.mtl
o Cube
v 1.000000 3.549833 0.875000
v 1.000000 3.549833 -1.125000
v 1.000000 0.011393 0.875000
v 1.000000 0.011393 -1.125000
v -1.000000 3.549833 0.875000
v -1.000000 3.549833 -1.125000
v -1.000000 0.011393 0.875000
v -1.000000 0.011393 -1.125000
v -1.291537 1.780613 -1.416537
v 1.291537 1.780613 1.166537
v -1.291537 1.780613 1.166537
v 1.291537 1.780613 -1.416537
v -0.751488 2.665223 0.626488
v 0.751488 2.665223 -0.876488
v -0.751488 2.665223 -0.876488
v 0.751488 2.665223 0.626488
vn -0.0000 -0.1626 0.9867
vn -0.0000 -1.0000 -0.0000
vn -0.9627 -0.2705 -0.0000
vn -0.0000 -0.1626 -0.9867
vn 0.9867 -0.1626 -0.0000
vn -0.0000 1.0000 -0.0000
vn 0.8535 0.5211 -0.0000
vn -0.0000 0.5211 -0.8535
vn -0.9867 -0.1626 -0.0000
vn -0.0000 0.5211 0.8535
vn -0.0000 -0.2705 0.9627
vn -0.0000 -0.2705 -0.9627
vn 0.9627 -0.2705 -0.0000
vn -0.8535 0.5211 -0.0000
vt 0.625000 0.500000
vt 0.375000 0.500000
vt 0.625000 0.750000
vt 0.375000 0.750000
vt 0.625000 0.250000
vt 0.875000 0.500000
vt 0.375000 0.250000
vt 0.125000 0.500000
vt 0.875000 0.750000
vt 0.625000 1.000000
vt 0.625000 0.000000
vt 0.375000 1.000000
vt 0.125000 0.750000
vt 0.375000 0.000000
vt 0.125000 0.625000
vt 0.375000 0.125000
vt 0.625000 0.625000
vt 0.875000 0.625000
vt 0.625000 0.125000
vt 0.375000 0.625000
vt 0.834279 0.549257
vt 0.584279 0.200743
vt 0.375000 0.549257
vt 0.165721 0.549257
vt 0.415721 0.200743
vt 0.625000 0.549257
s 0
usemtl Material
f 10/17/1 11/18/1 7/9/1 3/3/1
f 4/4/2 3/3/2 7/10/2 8/12/2
f 15/25/3 13/22/3 5/5/3 6/7/3
f 9/15/4 12/20/4 4/4/4 8/13/4
f 12/20/5 10/17/5 3/3/5 4/4/5
f 6/7/6 5/5/6 1/1/6 2/2/6
f 14/23/7 16/26/7 10/17/7 12/20/7
f 15/24/8 14/23/8 12/20/8 9/15/8
f 8/14/9 7/11/9 11/19/9 9/16/9
f 16/26/10 13/21/10 11/18/10 10/17/10
f 1/1/11 5/6/11 13/21/11 16/26/11
f 6/8/12 2/2/12 14/23/12 15/24/12
f 2/2/13 1/1/13 16/26/13 14/23/13
f 9/16/14 11/19/14 13/22/14 15/25/14
